<mxfile host="Electron" modified="2023-05-30T16:40:03.975Z" agent="Mozilla/5.0 (Windows NT 10.0; Win64; x64) AppleWebKit/537.36 (KHTML, like Gecko) draw.io/21.2.8 Chrome/112.0.5615.165 Electron/24.2.0 Safari/537.36" etag="JNOcdL4HESbtUd7xW1yR" version="21.2.8" type="device">
  <diagram name="PÃ¡gina-1" id="D6DQ6s2b8xuDzYGz5gr6">
    <mxGraphModel dx="1863" dy="614" grid="1" gridSize="10" guides="1" tooltips="1" connect="1" arrows="1" fold="1" page="1" pageScale="1" pageWidth="827" pageHeight="1169" math="0" shadow="0">
      <root>
        <mxCell id="0" />
        <mxCell id="1" parent="0" />
        <mxCell id="Km592HC1wd4ttECp1uEG-1" value="&lt;font style=&quot;font-size: 18px;&quot;&gt;&lt;u&gt;:Sistema&lt;/u&gt;&lt;/font&gt;" style="rounded=0;whiteSpace=wrap;html=1;" parent="1" vertex="1">
          <mxGeometry x="210" y="170" width="120" height="60" as="geometry" />
        </mxCell>
        <mxCell id="Km592HC1wd4ttECp1uEG-2" value="" style="endArrow=none;html=1;rounded=0;entryX=0;entryY=0.5;entryDx=0;entryDy=0;" parent="1" target="Km592HC1wd4ttECp1uEG-1" edge="1">
          <mxGeometry width="50" height="50" relative="1" as="geometry">
            <mxPoint x="-80" y="200" as="sourcePoint" />
            <mxPoint x="430" y="270" as="targetPoint" />
          </mxGeometry>
        </mxCell>
        <mxCell id="Km592HC1wd4ttECp1uEG-3" value="" style="endArrow=classic;html=1;rounded=0;" parent="1" edge="1">
          <mxGeometry width="50" height="50" relative="1" as="geometry">
            <mxPoint x="10" y="180" as="sourcePoint" />
            <mxPoint x="100" y="180" as="targetPoint" />
          </mxGeometry>
        </mxCell>
        <mxCell id="Km592HC1wd4ttECp1uEG-4" value="&lt;font style=&quot;font-size: 18px;&quot;&gt;&lt;u&gt;e:Empresa&lt;/u&gt;&lt;/font&gt;" style="rounded=0;whiteSpace=wrap;html=1;" parent="1" vertex="1">
          <mxGeometry x="670" y="170" width="120" height="60" as="geometry" />
        </mxCell>
        <mxCell id="Km592HC1wd4ttECp1uEG-5" value="" style="endArrow=none;html=1;rounded=0;exitX=1;exitY=0.5;exitDx=0;exitDy=0;entryX=0;entryY=0.5;entryDx=0;entryDy=0;" parent="1" source="Km592HC1wd4ttECp1uEG-1" target="Km592HC1wd4ttECp1uEG-4" edge="1">
          <mxGeometry width="50" height="50" relative="1" as="geometry">
            <mxPoint x="370" y="300" as="sourcePoint" />
            <mxPoint x="420" y="250" as="targetPoint" />
            <Array as="points" />
          </mxGeometry>
        </mxCell>
        <mxCell id="Km592HC1wd4ttECp1uEG-6" value="&lt;font style=&quot;font-size: 18px;&quot;&gt;&lt;u&gt;s:Sucursal&lt;/u&gt;&lt;/font&gt;" style="rounded=0;whiteSpace=wrap;html=1;" parent="1" vertex="1">
          <mxGeometry x="209" y="410" width="120" height="60" as="geometry" />
        </mxCell>
        <mxCell id="Km592HC1wd4ttECp1uEG-12" value="" style="endArrow=none;html=1;rounded=0;exitX=1;exitY=0.5;exitDx=0;exitDy=0;entryX=0.75;entryY=1;entryDx=0;entryDy=0;" parent="1" source="Km592HC1wd4ttECp1uEG-6" target="Km592HC1wd4ttECp1uEG-4" edge="1">
          <mxGeometry width="50" height="50" relative="1" as="geometry">
            <mxPoint x="390" y="410" as="sourcePoint" />
            <mxPoint x="440" y="360" as="targetPoint" />
            <Array as="points">
              <mxPoint x="760" y="440" />
            </Array>
          </mxGeometry>
        </mxCell>
        <mxCell id="Km592HC1wd4ttECp1uEG-13" value="&lt;font style=&quot;font-size: 14px;&quot;&gt;&lt;font style=&quot;&quot;&gt;1.1 : &lt;/font&gt;seleccionarSeccion(seccion : String)&lt;/font&gt;" style="text;html=1;strokeColor=none;fillColor=none;align=center;verticalAlign=middle;whiteSpace=wrap;rounded=0;" parent="1" vertex="1">
          <mxGeometry x="369" y="380" width="270" height="30" as="geometry" />
        </mxCell>
        <mxCell id="Km592HC1wd4ttECp1uEG-14" value="" style="endArrow=classic;html=1;rounded=0;" parent="1" edge="1">
          <mxGeometry width="50" height="50" relative="1" as="geometry">
            <mxPoint x="559" y="420" as="sourcePoint" />
            <mxPoint x="459" y="420" as="targetPoint" />
          </mxGeometry>
        </mxCell>
        <mxCell id="Km592HC1wd4ttECp1uEG-15" value="&lt;font style=&quot;font-size: 14px;&quot;&gt;&lt;font style=&quot;&quot;&gt;1 :&amp;nbsp;&lt;/font&gt;seleccionarSeccion(seccion : String, sucursal : String)&lt;/font&gt;" style="text;html=1;strokeColor=none;fillColor=none;align=center;verticalAlign=middle;whiteSpace=wrap;rounded=0;" parent="1" vertex="1">
          <mxGeometry x="319" y="140" width="370" height="30" as="geometry" />
        </mxCell>
        <mxCell id="Km592HC1wd4ttECp1uEG-16" value="" style="endArrow=classic;html=1;rounded=0;" parent="1" edge="1">
          <mxGeometry width="50" height="50" relative="1" as="geometry">
            <mxPoint x="459" y="180" as="sourcePoint" />
            <mxPoint x="549" y="180" as="targetPoint" />
          </mxGeometry>
        </mxCell>
        <mxCell id="Km592HC1wd4ttECp1uEG-19" value="" style="rounded=0;whiteSpace=wrap;html=1;" parent="1" vertex="1">
          <mxGeometry x="679" y="500" width="120" height="60" as="geometry" />
        </mxCell>
        <mxCell id="Km592HC1wd4ttECp1uEG-20" value="&lt;font style=&quot;font-size: 18px;&quot;&gt;&lt;u&gt;:Seccion&lt;/u&gt;&lt;/font&gt;" style="rounded=0;whiteSpace=wrap;html=1;" parent="1" vertex="1">
          <mxGeometry x="669" y="510" width="120" height="60" as="geometry" />
        </mxCell>
        <mxCell id="Km592HC1wd4ttECp1uEG-22" value="" style="endArrow=none;html=1;rounded=0;entryX=0.5;entryY=1;entryDx=0;entryDy=0;exitX=0;exitY=0.5;exitDx=0;exitDy=0;" parent="1" source="Km592HC1wd4ttECp1uEG-20" target="Km592HC1wd4ttECp1uEG-6" edge="1">
          <mxGeometry width="50" height="50" relative="1" as="geometry">
            <mxPoint x="389" y="520" as="sourcePoint" />
            <mxPoint x="439" y="470" as="targetPoint" />
            <Array as="points">
              <mxPoint x="269" y="540" />
            </Array>
          </mxGeometry>
        </mxCell>
        <mxCell id="Km592HC1wd4ttECp1uEG-24" value="&lt;font style=&quot;font-size: 14px;&quot;&gt;1.1.1 : se := find(seccion : String)&lt;/font&gt;" style="text;html=1;strokeColor=none;fillColor=none;align=center;verticalAlign=middle;whiteSpace=wrap;rounded=0;" parent="1" vertex="1">
          <mxGeometry x="368" y="480" width="260" height="30" as="geometry" />
        </mxCell>
        <mxCell id="Km592HC1wd4ttECp1uEG-25" value="" style="endArrow=classic;html=1;rounded=0;" parent="1" edge="1">
          <mxGeometry width="50" height="50" relative="1" as="geometry">
            <mxPoint x="458" y="519.5" as="sourcePoint" />
            <mxPoint x="548" y="519.5" as="targetPoint" />
          </mxGeometry>
        </mxCell>
        <mxCell id="Km592HC1wd4ttECp1uEG-28" value="El sistema recuerda la clave &#39;seccion&#39;" style="shape=note;whiteSpace=wrap;html=1;backgroundOutline=1;darkOpacity=0.05;fillColor=#fff2cc;strokeColor=#d6b656;" parent="1" vertex="1">
          <mxGeometry x="30" y="240" width="80" height="100" as="geometry" />
        </mxCell>
        <mxCell id="Km592HC1wd4ttECp1uEG-29" value="" style="endArrow=none;dashed=1;html=1;rounded=0;exitX=1.038;exitY=0.5;exitDx=0;exitDy=0;exitPerimeter=0;entryX=0;entryY=1;entryDx=0;entryDy=0;" parent="1" source="Km592HC1wd4ttECp1uEG-28" target="Km592HC1wd4ttECp1uEG-1" edge="1">
          <mxGeometry width="50" height="50" relative="1" as="geometry">
            <mxPoint x="390" y="450" as="sourcePoint" />
            <mxPoint x="440" y="400" as="targetPoint" />
          </mxGeometry>
        </mxCell>
        <mxCell id="Km592HC1wd4ttECp1uEG-30" value="&lt;font style=&quot;font-size: 14px;&quot;&gt;seleccionarSeccion(seccion : String)&lt;/font&gt;" style="text;html=1;strokeColor=none;fillColor=none;align=center;verticalAlign=middle;whiteSpace=wrap;rounded=0;" parent="1" vertex="1">
          <mxGeometry x="-130" y="140" width="370" height="30" as="geometry" />
        </mxCell>
        <mxCell id="MOjAT36JpiruxswaBaji-1" value="" style="rounded=0;whiteSpace=wrap;html=1;" vertex="1" parent="1">
          <mxGeometry x="215" y="280" width="120" height="60" as="geometry" />
        </mxCell>
        <mxCell id="MOjAT36JpiruxswaBaji-2" value="&lt;font style=&quot;font-size: 18px;&quot;&gt;&lt;u&gt;:Sucursal&lt;/u&gt;&lt;/font&gt;" style="rounded=0;whiteSpace=wrap;html=1;" vertex="1" parent="1">
          <mxGeometry x="205" y="290" width="120" height="60" as="geometry" />
        </mxCell>
        <mxCell id="MOjAT36JpiruxswaBaji-3" value="&lt;font style=&quot;font-size: 14px;&quot;&gt;1.1 : s := find(sucursal : String)&lt;/font&gt;" style="text;html=1;align=center;verticalAlign=middle;resizable=0;points=[];autosize=1;strokeColor=none;fillColor=none;" vertex="1" parent="1">
          <mxGeometry x="390" y="260" width="210" height="30" as="geometry" />
        </mxCell>
        <mxCell id="MOjAT36JpiruxswaBaji-4" value="" style="endArrow=classic;html=1;rounded=0;" edge="1" parent="1">
          <mxGeometry width="50" height="50" relative="1" as="geometry">
            <mxPoint x="551" y="300" as="sourcePoint" />
            <mxPoint x="451" y="300" as="targetPoint" />
          </mxGeometry>
        </mxCell>
        <mxCell id="MOjAT36JpiruxswaBaji-5" value="" style="endArrow=none;html=1;rounded=0;entryX=0.5;entryY=1;entryDx=0;entryDy=0;exitX=1;exitY=0.5;exitDx=0;exitDy=0;" edge="1" parent="1" source="MOjAT36JpiruxswaBaji-1" target="Km592HC1wd4ttECp1uEG-4">
          <mxGeometry width="50" height="50" relative="1" as="geometry">
            <mxPoint x="460" y="340" as="sourcePoint" />
            <mxPoint x="510" y="290" as="targetPoint" />
            <Array as="points">
              <mxPoint x="730" y="310" />
            </Array>
          </mxGeometry>
        </mxCell>
      </root>
    </mxGraphModel>
  </diagram>
</mxfile>
